name ./resultDataOpenSim/trcMotMarkerGrf/sub09/grf-03-02.mot
datacolumns 19
datarows 25
range 0.49600000 0.59200000
endheader

                time	     ground_force_vx	     ground_force_vy	     ground_force_vz	     ground_force_px	     ground_force_py	     ground_force_pz	   l_ground_force_vx	   l_ground_force_vy	   l_ground_force_vz	   l_ground_force_px	   l_ground_force_py	   l_ground_force_pz	     ground_torque_x	     ground_torque_y	     ground_torque_z	   l_ground_torque_x	   l_ground_torque_y	   l_ground_torque_z	
          0.49600000	         42.16200775	        391.92159598	        -19.44106256	         -0.73280033	          0.00000000	          0.09732959	          0.00000000	          0.00000000	          0.00000000	          0.00000000	          0.00000000	          0.00000000	          0.00000000	          3.26902259	          0.00000000	          0.00000000	          0.00000000	          0.00000000	
          0.50000000	         44.81586646	        398.44552103	        -18.05249198	         -0.73197409	          0.00000000	          0.09728296	          0.00000000	          0.00000000	          0.00000000	          0.00000000	          0.00000000	          0.00000000	          0.00000000	          3.74380736	          0.00000000	          0.00000000	          0.00000000	          0.00000000	
          0.50400000	         46.91770918	        405.94368547	        -16.47387056	         -0.73087581	          0.00000000	          0.09715561	          0.00000000	          0.00000000	          0.00000000	          0.00000000	          0.00000000	          0.00000000	          0.00000000	          4.25916696	          0.00000000	          0.00000000	          0.00000000	          0.00000000	
          0.50800000	         48.59190146	        414.41622037	        -15.03947152	         -0.72954629	          0.00000000	          0.09698578	          0.00000000	          0.00000000	          0.00000000	          0.00000000	          0.00000000	          0.00000000	          0.00000000	          4.76816944	          0.00000000	          0.00000000	          0.00000000	          0.00000000	
          0.51200000	         50.04524480	        423.81832117	        -14.02177634	         -0.72801747	          0.00000000	          0.09681279	          0.00000000	          0.00000000	          0.00000000	          0.00000000	          0.00000000	          0.00000000	          0.00000000	          5.22916151	          0.00000000	          0.00000000	          0.00000000	          0.00000000	
          0.51600000	         51.50627209	        434.04860610	        -13.58758715	         -0.72633454	          0.00000000	          0.09667134	          0.00000000	          0.00000000	          0.00000000	          0.00000000	          0.00000000	          0.00000000	          0.00000000	          5.61263801	          0.00000000	          0.00000000	          0.00000000	          0.00000000	
          0.52000000	         53.16886934	        444.97173542	        -13.77919753	         -0.72453957	          0.00000000	          0.09659411	          0.00000000	          0.00000000	          0.00000000	          0.00000000	          0.00000000	          0.00000000	          0.00000000	          5.90484232	          0.00000000	          0.00000000	          0.00000000	          0.00000000	
          0.52400000	         55.15086270	        456.46041987	        -14.52822998	         -0.72265934	          0.00000000	          0.09660006	          0.00000000	          0.00000000	          0.00000000	          0.00000000	          0.00000000	          0.00000000	          0.00000000	          6.10747877	          0.00000000	          0.00000000	          0.00000000	          0.00000000	
          0.52800000	         57.47084431	        468.42593226	        -15.69812969	         -0.72072011	          0.00000000	          0.09668514	          0.00000000	          0.00000000	          0.00000000	          0.00000000	          0.00000000	          0.00000000	          0.00000000	          6.23387805	          0.00000000	          0.00000000	          0.00000000	          0.00000000	
          0.53200000	         60.04944812	        480.82668428	        -17.13824991	         -0.71872680	          0.00000000	          0.09683435	          0.00000000	          0.00000000	          0.00000000	          0.00000000	          0.00000000	          0.00000000	          0.00000000	          6.30285278	          0.00000000	          0.00000000	          0.00000000	          0.00000000	
          0.53600000	         62.73874919	        493.65966503	        -18.73064492	         -0.71666433	          0.00000000	          0.09702689	          0.00000000	          0.00000000	          0.00000000	          0.00000000	          0.00000000	          0.00000000	          0.00000000	          6.33207317	          0.00000000	          0.00000000	          0.00000000	          0.00000000	
          0.54000000	         65.37471924	        506.93862436	        -20.41484132	         -0.71452087	          0.00000000	          0.09724300	          0.00000000	          0.00000000	          0.00000000	          0.00000000	          0.00000000	          0.00000000	          0.00000000	          6.33287398	          0.00000000	          0.00000000	          0.00000000	          0.00000000	
          0.54400000	         67.83534467	        520.67164865	        -22.18216588	         -0.71229965	          0.00000000	          0.09746364	          0.00000000	          0.00000000	          0.00000000	          0.00000000	          0.00000000	          0.00000000	          0.00000000	          6.30793854	          0.00000000	          0.00000000	          0.00000000	          0.00000000	
          0.54800000	         70.08121814	        534.85055810	        -24.04284910	         -0.71002903	          0.00000000	          0.09766319	          0.00000000	          0.00000000	          0.00000000	          0.00000000	          0.00000000	          0.00000000	          0.00000000	          6.25242863	          0.00000000	          0.00000000	          0.00000000	          0.00000000	
          0.55200000	         72.16567041	        549.44875934	        -25.98080917	         -0.70776017	          0.00000000	          0.09780346	          0.00000000	          0.00000000	          0.00000000	          0.00000000	          0.00000000	          0.00000000	          0.00000000	          6.15808866	          0.00000000	          0.00000000	          0.00000000	          0.00000000	
          0.55600000	         74.21744350	        564.41725236	        -27.92075033	         -0.70554650	          0.00000000	          0.09783927	          0.00000000	          0.00000000	          0.00000000	          0.00000000	          0.00000000	          0.00000000	          0.00000000	          6.01896355	          0.00000000	          0.00000000	          0.00000000	          0.00000000	
          0.56000000	         76.41037358	        579.68130364	        -29.73097581	         -0.70342770	          0.00000000	          0.09773553	          0.00000000	          0.00000000	          0.00000000	          0.00000000	          0.00000000	          0.00000000	          0.00000000	          5.83690936	          0.00000000	          0.00000000	          0.00000000	          0.00000000	
          0.56400000	         78.93349577	        595.14536798	        -31.25520086	         -0.70142815	          0.00000000	          0.09747906	          0.00000000	          0.00000000	          0.00000000	          0.00000000	          0.00000000	          0.00000000	          0.00000000	          5.62515346	          0.00000000	          0.00000000	          0.00000000	          0.00000000	
          0.56800000	         81.96203211	        610.69774093	        -32.33558082	         -0.69956515	          0.00000000	          0.09707570	          0.00000000	          0.00000000	          0.00000000	          0.00000000	          0.00000000	          0.00000000	          0.00000000	          5.40866567	          0.00000000	          0.00000000	          0.00000000	          0.00000000	
          0.57200000	         85.62302584	        626.21128208	        -32.81241794	         -0.69785796	          0.00000000	          0.09654204	          0.00000000	          0.00000000	          0.00000000	          0.00000000	          0.00000000	          0.00000000	          0.00000000	          5.22085539	          0.00000000	          0.00000000	          0.00000000	          0.00000000	
          0.57600000	         89.96134178	        641.55227257	        -32.53337736	         -0.69631548	          0.00000000	          0.09590144	          0.00000000	          0.00000000	          0.00000000	          0.00000000	          0.00000000	          0.00000000	          0.00000000	          5.09704307	          0.00000000	          0.00000000	          0.00000000	          0.00000000	
          0.58000000	         94.92566222	        656.59741441	        -31.39330217	         -0.69491774	          0.00000000	          0.09518873	          0.00000000	          0.00000000	          0.00000000	          0.00000000	          0.00000000	          0.00000000	          0.00000000	          5.06617762	          0.00000000	          0.00000000	          0.00000000	          0.00000000	
          0.58400000	        100.38613821	        671.24588901	        -29.37920211	         -0.69362712	          0.00000000	          0.09444403	          0.00000000	          0.00000000	          0.00000000	          0.00000000	          0.00000000	          0.00000000	          0.00000000	          5.14302174	          0.00000000	          0.00000000	          0.00000000	          0.00000000	
          0.58800000	        106.17691293	        685.41594078	        -26.59386616	         -0.69240676	          0.00000000	          0.09369984	          0.00000000	          0.00000000	          0.00000000	          0.00000000	          0.00000000	          0.00000000	          0.00000000	          5.32305175	          0.00000000	          0.00000000	          0.00000000	          0.00000000	
          0.59200000	        112.14588149	        699.02901649	        -23.25730833	         -0.69123702	          0.00000000	          0.09297886	          0.00000000	          0.00000000	          0.00000000	          0.00000000	          0.00000000	          0.00000000	          0.00000000	          5.58156264	          0.00000000	          0.00000000	          0.00000000	          0.00000000	
